<svg width="48" height="48" viewBox="0 0 48 48" fill="none" xmlns="http://www.w3.org/2000/svg">
<g id="arcticons:billthefarmercrossword">
<path id="Vector" d="M40.5 5.5H7.5C6.39543 5.5 5.5 6.39543 5.5 7.5V40.5C5.5 41.6046 6.39543 42.5 7.5 42.5H40.5C41.6046 42.5 42.5 41.6046 42.5 40.5V7.5C42.5 6.39543 41.6046 5.5 40.5 5.5Z" stroke="white" stroke-width="2" stroke-linecap="round" stroke-linejoin="round"/>
<path id="Vector_2" d="M17.833 5.5V42.5M30.167 5.5V42.5M5.5 17.833H42.5M5.5 30.167H42.5M9.667 15.667H13.667M9.667 8.756L11.667 7.667V15.667M33.683 10.317C33.683 9.969 33.7515 9.6244 33.8847 9.30289C34.0179 8.98138 34.2131 8.68924 34.4592 8.44317C34.7052 8.19709 34.9974 8.00189 35.3189 7.86872C35.6404 7.73554 35.985 7.667 36.333 7.667C36.681 7.667 37.0256 7.73554 37.3471 7.86872C37.6686 8.00189 37.9608 8.19709 38.2068 8.44317C38.4529 8.68924 38.6481 8.98138 38.7813 9.30289C38.9145 9.6244 38.983 9.969 38.983 10.317C38.9935 10.6665 38.9297 11.0142 38.796 11.3372C38.6622 11.6602 38.4615 11.9512 38.207 12.191C37.135 13.131 33.683 15.667 33.683 15.667H38.983M12.317 36.334C12.8474 36.334 13.3561 36.1233 13.7312 35.7482C14.1063 35.3731 14.317 34.8644 14.317 34.334C14.317 33.8036 14.1063 33.2949 13.7312 32.9198C13.3561 32.5447 12.8474 32.334 12.317 32.334" stroke="white" stroke-width="2" stroke-linecap="round" stroke-linejoin="round"/>
<path id="Vector_3" d="M9.01803 39.659C9.72683 40.2006 10.6198 40.4426 11.505 40.333H12.317C12.8475 40.333 13.3562 40.1223 13.7312 39.7472C14.1063 39.3721 14.317 38.8634 14.317 38.333C14.317 37.8026 14.1063 37.2938 13.7312 36.9188C13.3562 36.5437 12.8475 36.333 12.317 36.333L10.28 36.334M9.01703 33.002C9.72734 32.4614 10.6214 32.2212 11.507 32.333L12.318 32.335" stroke="white" stroke-width="2" stroke-linecap="round" stroke-linejoin="round"/>
</g>
</svg>
